<?xml version="1.0" encoding="UTF-8" standalone="no"?>
<!-- Created with Inkscape (http://www.inkscape.org/) -->

<svg
   width="100mm"
   height="100mm"
   viewBox="0 0 100 100"
   version="1.1"
   id="svg1"
   xmlns="http://www.w3.org/2000/svg"
   xmlns:svg="http://www.w3.org/2000/svg">
  <defs
     id="defs1" />
  <g
     id="layer1">
    <path
       class="monochrome-0 multicolor-0:tintColor hierarchical-0:primary SFSymbolsPreviewWireframe"
       d="m 12.378744,77.789024 c -2.04945,8.246434 1.512586,13.125974 9.466261,13.125974 h 56.310001 c 7.953682,0 11.515692,-4.87954 9.466252,-13.125974 L 79.277267,43.632189 C 77.862214,37.874343 73.519421,34.458614 67.615179,34.458614 H 32.384848 c -5.953014,0 -10.247039,3.415729 -11.662091,9.173575 z m 6.782556,0.48795 8.099978,-32.107398 c 0.780777,-3.171772 2.586168,-4.635585 5.660309,-4.635585 h 34.156842 c 3.074137,0 4.879505,1.463813 5.660287,4.635585 l 8.1,32.107398 c 0.927178,3.708447 -0.585511,5.562651 -3.659648,5.562651 H 22.820951 c -3.074141,0 -4.586828,-1.854204 -3.659651,-5.562651 z M 46.486723,39.67971 h 7.026578 V 27.968862 h -7.026578 z m 3.513214,-8.343994 c 6.050676,0 11.125451,-5.025939 11.125451,-11.076577 0,-6.099438 -5.074775,-11.1741375 -11.125451,-11.1741375 -6.050527,0 -11.1741,5.0746995 -11.1741,11.1741375 0,6.050638 5.123573,11.076577 11.1741,11.076577 z m 0,-6.050638 c -2.781308,0 -5.074701,-2.293395 -5.074701,-5.025939 0,-2.781344 2.293393,-5.123462 5.074701,-5.123462 2.781344,0 5.074813,2.342118 5.074813,5.123462 0,2.732544 -2.293469,5.025939 -5.074813,5.025939 z"
       id="path32"
       style="fill:#000000;fill-opacity:1;stroke:none;stroke-width:0.499667" />
  </g>
</svg>
