<?xml version="1.0" encoding="UTF-8" standalone="no"?>
<!-- Created with Inkscape (http://www.inkscape.org/) -->

<svg
   width="100"
   height="100"
   viewBox="0 0 26.458333 26.458333"
   version="1.1"
   id="svg1"
   xmlns="http://www.w3.org/2000/svg"
   xmlns:svg="http://www.w3.org/2000/svg">
  <defs
     id="defs1" />
  <g
     id="layer1">
    <path
       class="monochrome-0 multicolor-0:tintColor hierarchical-0:primary SFSymbolsPreviewWireframe"
       d="m 3.2685445,20.586602 c -0.3644554,1.162317 -0.1433818,2.770947 1.1499865,3.239265 1.1642026,0.396322 2.4151428,0.179902 3.6229056,0.235975 4.3409474,-0.0098 8.6828774,0.01975 13.0232004,-0.01504 1.111395,-0.0094 2.215769,-0.829511 2.25859,-1.996099 0.05678,-1.315814 -0.456469,-2.564435 -0.713781,-3.839784 -0.59174,-2.35798 -1.124161,-4.732757 -1.754327,-7.079862 C 20.424001,9.772572 18.975987,8.9786737 17.594733,9.1144218 14.488258,9.1213336 11.38115,9.1005277 8.2750736,9.1249503 6.8230333,9.1609266 5.6279293,10.369666 5.4210905,11.774996 4.7035752,14.712198 3.9860598,17.6494 3.2685445,20.586602 Z M 12.29899,10.496762 c 0.62012,0 1.24024,0 1.86036,0 0,-1.0335234 0,-2.0670468 0,-3.1005702 -0.62012,0 -1.24024,0 -1.86036,0 0,1.0335234 0,2.0670468 0,3.1005702 z M 13.22915,8.2876018 C 15.121257,8.3473009 16.680466,6.2808214 16.040176,4.4822691 15.558783,2.7699138 13.379597,1.8326812 11.83314,2.7573957 10.289474,3.534733 9.755063,5.7500218 10.86783,7.1020097 c 0.550359,0.7293106 1.444205,1.1907784 2.36132,1.1855921 z m 0,-1.60197 C 12.144358,6.7385824 11.452445,5.3026595 12.194206,4.497415 12.839295,3.6050911 14.382191,4.0093896 14.54523,5.0852506 14.733089,5.8865295 14.044912,6.7039257 13.22915,6.6856318 Z"
       id="path32"
       style="fill:#000000;stroke:none;stroke-width:0.132292;stroke-opacity:1;fill-opacity:1" />
  </g>
</svg>
