<?xml version="1.0" encoding="UTF-8" standalone="no"?>
<svg
   width="24"
   height="24"
   viewBox="0 0 24 24"
   version="1.1"
   id="svg1"
   sodipodi:docname="cat_profile_icon_outline.svg"
   inkscape:version="1.4.2 (ebf0e940, 2025-05-08)"
   xmlns:inkscape="http://www.inkscape.org/namespaces/inkscape"
   xmlns:sodipodi="http://sodipodi.sourceforge.net/DTD/sodipodi-0.dtd"
   xmlns="http://www.w3.org/2000/svg"
   xmlns:svg="http://www.w3.org/2000/svg">
  <defs
     id="defs1" />
  <sodipodi:namedview
     id="namedview1"
     pagecolor="#ffffff"
     bordercolor="#000000"
     borderopacity="0.25"
     inkscape:showpageshadow="2"
     inkscape:pageopacity="0.0"
     inkscape:pagecheckerboard="0"
     inkscape:deskcolor="#d1d1d1"
     inkscape:zoom="13.819838"
     inkscape:cx="7.3083346"
     inkscape:cy="6.8379962"
     inkscape:window-width="1512"
     inkscape:window-height="920"
     inkscape:window-x="0"
     inkscape:window-y="34"
     inkscape:window-maximized="0"
     inkscape:current-layer="svg1" />
  <path
     fill="#000000"
     d="M 11.93,21.76 C 9.9,21.62 7.76,21.02 5.56,19.96 3.9,19.16 3,18.5 3,18.07 3,18.03 3.13,17.75 3.28,17.44 3.96,16.03 4.21,15.28 4.67,13.17 4.99,11.72 5.09,11.33 5.3,10.7 5.68,9.55 6.01,8.94 6.9,7.75 7.14,7.43 7.44,6.97 7.64,6.61 c 1.12,-1.99 2.08,-3.41 2.69,-4 0.39,-0.37 0.61,-0.49 0.92,-0.4 0.33,0.09 0.52,0.36 0.88,1.25 0.19,0.47 0.68,1.76 0.87,2.29 0.06,0.18 0.13,0.31 0.14,0.29 0.02,-0.01 -0.09,-0.43 -0.24,-0.92 -0.15,-0.49 -0.28,-0.9 -0.28,-0.9 0,-0.03 1.76,-1.59 1.94,-1.72 0.19,-0.14 0.36,-0.18 0.53,-0.13 0.2,0.07 0.26,0.18 0.26,0.46 0,0.26 -0.07,0.5 -0.33,1.34 -0.108948,0.533639 -0.51,1.75 -0.49,1.77 0.04125,0.046875 0.18,0.09 0.39,0.18 0.43,0.19 0.91,0.44 1.37,0.72 1.21,0.74 1.58,1.17 1.88,2.21 0.3,1.03 0.77,1.65 1.94,2.56 0.29,0.22 0.59,0.47 0.67,0.56 0.12,0.13 0.14,0.18 0.14,0.31 0,0.37 -0.19,1.07 -0.34,1.26 -0.16,0.2 -0.23,0.35 -0.27,0.48 -0.22,0.82 -0.82,1.59 -1.5,1.94 -0.59,0.3 -1.12,0.38 -2.23,0.35 -1.15,-0.04 -1.45,0.04 -1.68,0.44 -0.34,0.6 -0.26,1.73 0.23,3.3 0.24,0.77 0.24,0.74 0.16,0.92 -0.05,0.1 -0.12,0.18 -0.21,0.24 -0.54,0.34 -2.86,0.49 -3.15,0.35 z"
     id="path1"
     style="fill:none;stroke:#000000;stroke-width:1.2;stroke-linecap:round;stroke-linejoin:round;stroke-dasharray:none;stroke-opacity:1"
     sodipodi:nodetypes="ccsccccccccccscccscccccccsccccccccc" />
</svg>
