<?xml version="1.0" encoding="UTF-8"?>
<svg width="24" height="24" viewBox="0 0 24 24" version="1.1" xmlns="http://www.w3.org/2000/svg">
  <path fill="#000000" d="M 11.93 21.76 C 9.90 21.62 7.76 21.02 5.56 19.96 C 3.90 19.16 3.00 18.50 3.00 18.07 C 3.00 18.03 3.13 17.75 3.28 17.44 C 3.96 16.03 4.21 15.28 4.67 13.17 C 4.99 11.72 5.09 11.33 5.30 10.70 C 5.68 9.55 6.01 8.94 6.90 7.75 C 7.14 7.43 7.44 6.97 7.64 6.61 C 8.76 4.62 9.72 3.20 10.33 2.61 C 10.72 2.24 10.94 2.12 11.25 2.21 C 11.58 2.30 11.77 2.57 12.13 3.46 C 12.32 3.93 12.81 5.22 13.00 5.75 C 13.06 5.93 13.13 6.06 13.14 6.04 C 13.16 6.03 13.05 5.61 12.90 5.12 C 12.75 4.63 12.62 4.22 12.62 4.22 C 12.62 4.19 14.38 2.63 14.56 2.50 C 14.75 2.36 14.92 2.32 15.09 2.37 C 15.29 2.44 15.35 2.55 15.35 2.83 C 15.35 3.09 15.28 3.33 15.02 4.17 C 14.82 4.80 14.51 5.92 14.53 5.94 C 14.54 5.94 14.71 6.03 14.92 6.12 C 15.35 6.31 15.83 6.56 16.29 6.84 C 17.50 7.58 17.87 8.01 18.17 9.05 C 18.47 10.08 18.94 10.70 20.11 11.61 C 20.40 11.83 20.70 12.08 20.78 12.17 C 20.90 12.30 20.92 12.35 20.92 12.48 C 20.92 12.85 20.73 13.55 20.58 13.74 C 20.42 13.94 20.35 14.09 20.31 14.22 C 20.09 15.04 19.49 15.81 18.81 16.16 C 18.22 16.46 17.69 16.54 16.58 16.51 C 15.43 16.47 15.13 16.55 14.90 16.95 C 14.56 17.55 14.64 18.68 15.13 20.25 C 15.37 21.02 15.37 20.99 15.29 21.17 C 15.24 21.27 15.17 21.35 15.08 21.41 C 14.54 21.75 12.22 21.90 11.93 21.76 Z"/>
</svg>

