<?xml version="1.0" encoding="UTF-8" standalone="no"?>
<!-- Uploaded to: SVG Repo, www.svgrepo.com, Generator: SVG Repo Mixer Tools -->

<svg
   version="1.1"
   id="Uploaded to svgrepo.com"
   width="800px"
   height="800px"
   viewBox="0 0 32 32"
   xml:space="preserve"
   xmlns="http://www.w3.org/2000/svg"
   xmlns:svg="http://www.w3.org/2000/svg"><defs
   id="defs1" />
<style
   type="text/css"
   id="style1">
	.blueprint_een{fill:#111918;}
	.st0{fill:#0B1719;}
</style>
<path
   class="blueprint_een"
   d="M28.95,11.536L20.464,3.05C19.142,1.728,17.384,1,15.515,1s-3.628,0.728-4.95,2.05  c-2.182,2.183-2.622,5.466-1.278,8.104C8.131,11.353,7.016,11.753,6,12.339C1.225,15.097-0.417,21.225,2.339,26  c1.781,3.085,5.103,5,8.669,5c1.746,0,3.472-0.462,4.992-1.34c2.583-1.492,4.342-4.058,4.846-6.949  c0.978,0.498,2.065,0.763,3.181,0.763c0,0,0,0,0.001,0c1.859,0,3.607-0.724,4.922-2.039C31.679,18.706,31.679,14.265,28.95,11.536z   M24.939,10.354l-6.146,6.146c-0.193-0.335-0.409-0.649-0.637-0.949l5.99-5.99L24.939,10.354z M11.979,4.464  C12.923,3.52,14.179,3,15.515,3s2.591,0.52,3.536,1.464l4.389,4.389l-5.94,5.94c-1.344-1.409-3.083-2.311-4.94-2.64l-0.737-0.815  C10.035,9.36,10.103,6.341,11.979,4.464z M15,27.928c-1.216,0.702-2.596,1.073-3.992,1.073c-2.854,0-5.512-1.533-6.937-4.002  c-0.756-1.31-1.089-2.746-1.059-4.158l14.984,4.015C17.317,26.094,16.31,27.172,15,27.928z M18.432,23.938L3.095,19.829  c0.09-0.605,0.249-1.197,0.473-1.766l15.336,4.109C18.814,22.776,18.656,23.369,18.432,23.938z M4.003,17.144  C4.683,15.906,5.69,14.828,7,14.072c1.216-0.702,2.596-1.073,3.992-1.073c0.026,0,0.051,0.005,0.077,0.005l0.002,0.005l0.089,0.001  c2.789,0.059,5.371,1.571,6.768,3.99c0.756,1.31,1.09,2.746,1.059,4.159L4.003,17.144z M19.263,17.444l6.384-6.384l0.793,0.793  l-6.768,6.768C19.562,18.225,19.43,17.831,19.263,17.444z M20.665,20.18l-0.598-0.54l7.08-7.08l0.389,0.389  c0.137,0.137,0.245,0.294,0.364,0.443l-6.979,6.979C20.837,20.305,20.745,20.252,20.665,20.18z M22.949,21.344  c-0.406-0.089-0.793-0.236-1.163-0.422l6.667-6.667c0.186,0.37,0.337,0.755,0.425,1.161L22.949,21.344z M27.536,20.021  c-0.883,0.882-2.042,1.375-3.281,1.431l4.721-4.721C28.915,17.973,28.421,19.136,27.536,20.021z"
   id="path1"
   style="stroke:none;fill:#000000;fill-opacity:1" />
</svg>
