<?xml version="1.0" encoding="UTF-8"?>
<svg version="1.1" viewBox="0 0 243.985 310.892" xmlns="http://www.w3.org/2000/svg">
 <path d="m97.5812 0c1.127 0.67 5.653 12.879 6.648 15.19 6.907 16.443 14.617 32.537 23.101 48.225 1.995 3.734 7.545 13.986 9.956 17.458-2.531 4.121-4.832 9.114-7.575 12.937-1.019 1.421-4.906 4.935-6.368 6.432-5.482 5.721-9.696 12.534-12.365 19.995-10.683 29.137 7.391 60.185 20.494 85.173 5.268 10.046 9.22 20.193 12.375 31.04 6.675 22.951 2.601 49.344-17.602 64.183-14.523 10.733-29.062 11.689-46.318 8.967-6.617-1.169-13.098-3.008-19.342-5.488-32.234-12.815-55.151-42.802-59.726-76.996-4.385-32.772 8.677-60.486 24.122-88.49 10.823-19.624 22.775-38.391 33.826-57.807 14.952-25.92 27.914-52.937 38.774-80.819z" fill="#6bb8a8"/>
 <path d="m22.0302 185.625c0.223 0.337-0.335 3.434-0.436 4.097-3.05 20.023-0.435 40.704 9.101 58.706 10.388 19.392 27.551 34.281 48.216 41.825 7.278 2.703 13.021 3.684 20.05 5.843-2.117 0.119-4.703 0.077-6.856 0.099-12.416 0.307-24.205-1.756-35.431-7.237-18.229-8.816-32.17-24.563-38.712-43.726-6.37-18.819-4.695-41.776 4.068-59.607z" fill="#fff"/>
 <path d="m163.576 61.242c4.902 0.971 5.862 14.561 6.405 18.562 3.101-3.293 7.404-8.09 11.118-10.385 0.085 7.976-2.945 14.854-2.964 23.897 9.088 3.152 18.456 3.026 28.039 7.574 13.112 6.224 10.676 14.267 19.271 23.643 5.728 6.247 15.544 7.735 18.54 15.936-0.355 2.65-1.017 5.01-1.64 7.522-1.725 6.954-2.08 8.712-6.796 14.026-1.111 9.164-7.852 14.539-16.557 16.005-4.978 0.839-9.193 0.613-14.242 2.081-4.221 1.247-8.073 3.508-11.22 6.585-14.351 13.946-9.989 38-10.079 55.933-0.088 17.755-6.823 31.147-19.301 43.379-9.894 9.5-21.948 16.157-34.661 21.066 1.834-1.256 3.856-2.596 5.589-3.97 9.8-7.749 16.667-18.605 19.47-30.779 7.363-31.215-9.722-61.38-23.471-88.037-8.369-16.225-15.708-33.449-13.484-52.18 0.683-5.879 2.482-11.573 5.3-16.777 1.993-3.616 4.436-7.005 7.289-9.987 1.876-2.117 5.343-4.555 6.772-6.95 7.691-12.899 14.471-27.627 26.622-37.144z"/>
 <path d="m208.676 118.613c3.799 0.781 3.985 5.592 3.938 8.601 3.258 0.81 3.98 1.779 6.156 4.24-1.476-0.888-2.616-1.684-4.263-2.199l-3.65-0.068c-3.219-2.377-5.313-5.131-7.719-8.255 1.994-0.934 3.454-1.639 5.538-2.319z" fill="#fff"/>
</svg>
